PathFileType	4	(X/Y/Z)	C:/Users/beibeiliu/ov580/test_trc/User3\sequence.47_training_dense_left.trc
DataRate	CameraRate	NumFrames	NumMarkers	Units	OrigDataRate	OrigDataStartFrame	OrigNumFrames
120	120	10	19	mm	120	32	63
Frame#	Time	ThumbCMC			ThumbMCP			ThumbIP			ThumbTip			IndexMCP			IndexPIP			IndexTip			MiddleMCP			MiddlePIP			MiddleTip			RingMCP			RingPIP			RingTip			PinkyMCP			PinkyPIP			PinkyTip			BackHand1			BackHand2			BackHand3	
		X0	Y0	Z0	X1	Y1	Z1	X2	Y2	Z2	X3	Y3	Z3	X4	Y4	Z4	X5	Y5	Z5	X6	Y6	Z6	X7	Y7	Z7	X8	Y8	Z8	X9	Y9	Z9	X10	Y10	Z10	X11	Y11	Z11	X12	Y12	Z12	X13	Y13	Z13	X14	Y14	Z14	X15	Y15	Z15	X16	Y16	Z16	X17	Y17	Z17	X18	Y18	Z18	
31	0.258333	-179.299	14.198	-6.56124	-186.401	37.5948	-29.3949	-181.285	53.8172	-48.8322	-176.901	72.145	-67.0862	-137.564	1.92377	-74.2901	-132.991	6.03442	-97.5285	-121.992	10.555	-122.844	-109.349	10.7777	-68.9038	-94.7463	35.9296	-80.1306	-84.525	69.9878	-76.3411	-94.1413	12.4507	-44.3434	-84.5938	38.012	-48.1524	-83.4774	68.0656	-35.4877	-84.9034	6.46744	-25.4706	-75.3001	33.4265	-27.9837	-78.5095	55.8828	-21.8928	-125.247	-27.0003	-13.8273	-141.275	-29.7637	15.0405	-161.993	-14.8051	-15.7058	
32	0.266667	-175.316	35.7517	-7.60914	-175.108	58.5087	-26.528	-168.19	78.598	-47.7249	-156.707	90.9477	-63.33	-140.454	23.8293	-73.6911	-126.49	29.4536	-98.3474	-112.706	34.5251	-119.881	-109.639	20.613	-65.4872	-88.4621	44.4027	-72.8525	-73.8283	74.5118	-57.7434	-98.116	11.9251	-52.109	-77.4822	29.6122	-55.8632	-63.4899	55.4217	-47.2879	-87.4429	-2.37073	-33.1	-71.9181	14.6364	-43.5849	-56.6847	37.3817	-42.7945	-135.137	-18.6645	-19.8669	-151.582	-19.3114	9.24715	-163.492	0.500035	-15.4246	
33	0.275	-169.108	61.4813	-2.60943	-159.602	83.2214	-21.582	-146.575	101.192	-44.1009	-136.648	111.578	-54.6376	-134.655	43.9018	-72.8819	-119.408	51.1176	-94.5689	-102.171	59.0562	-113.468	-110.768	34.3646	-67.2343	-84.3594	48.136	-68.7375	-61.5652	66.564	-50.1787	-105.179	15.2661	-59.2563	-82.5504	22.1309	-65.7099	-55.1362	37.5995	-64.2803	-102	-6.28055	-45.0967	-85.1014	0.691593	-56.8558	-63.2172	3.81333	-65.6157	-151.311	-0.115557	-25.1287	-163.036	-2.70838	1.17378	-170.517	23.8211	-18.2452	
34	0.283333	-154.051	77.3267	4.02698	-138.314	98.7123	-11.0273	-123.287	112.046	-30.576	-110.639	122.8	-45.5945	-131.709	62.8891	-69.7746	-109.353	65.3092	-92.4817	-93.8034	66.7986	-106.084	-114.744	41.3545	-69.9634	-83.0257	42.6544	-70.4078	-53.1345	47.4704	-49.5941	-121.402	17.538	-64.6232	-97.6946	20.5831	-78.8864	-69.1909	19.2766	-84.9053	-128.11	-2.07463	-47.6225	-112.681	-4.16418	-69.0637	-98.0951	-7.1917	-85.6296	-164.223	19.899	-26.1481	-175.872	17.7249	4.19001	-171.008	47.2498	-15.1861	
35	0.291667	-135.408	84.842	14.2376	-115.32	99.2228	-5.11067	-98.5046	109.654	-20.8884	-82.4196	120.073	-33.812	-122.558	75.431	-66.0226	-99.2932	74.7404	-86.4551	-84.1335	69.0581	-99.9783	-120.396	44.4516	-70.9657	-90.2071	38.7494	-75.4205	-59.2532	27.5111	-64.6167	-136.792	27.6916	-68.1146	-118.045	23.0751	-87.2341	-98.5077	15.6213	-100.237	-150.826	10.0424	-57.0683	-143.194	4.21649	-76.1764	-138.847	-4.67276	-92.411	-171.91	38.9665	-26.1821	-181.989	37.9768	4.44055	-163.516	66.7602	-6.54143	
36	0.3	-121.273	81.1125	21.4645	-99.5805	89.8959	3.22157	-79.8477	98.7596	-11.2337	-60.0616	110.467	-19.8664	-115.069	75.3201	-60.4031	-97.4981	71.5934	-77.7292	-80.306	62.7826	-95.8333	-125.162	54.2137	-67.4984	-101.34	42.2985	-79.865	-77.6676	17.6402	-83.9677	-147.438	40.7498	-64.9186	-136.305	34.6339	-85.061	-120.698	24.5888	-111.102	-163.305	26.1736	-55.8013	-161.995	20.5671	-74.5378	-166.656	11.5012	-95.8931	-173.072	52.426	-17.2846	-180.092	53.6186	9.40671	-154.353	75.435	0.923985	
37	0.308333	-110.285	70.851	25.1283	-85.8558	77.5082	8.78803	-64.7837	81.8648	-3.4519	-43.7611	88.0258	-13.1495	-104.714	75.8159	-57.1194	-88.0578	70.1785	-74.983	-71.9782	60.9056	-91.9748	-127.742	62.0973	-63.6509	-109.756	49.5537	-85.0476	-92.7275	28.0369	-101.678	-150.836	51.881	-61.4997	-140.516	48.4723	-87.2272	-136.945	37.715	-113.652	-169.702	37.49	-47.2836	-171.375	31.4044	-69.7309	-173.347	30.1563	-89.8409	-164.357	64.9256	-7.90633	-176.491	59.8896	17.1488	-140.426	80.5213	8.13064	
38	0.316667	-103.259	58.4977	28.6947	-74.0937	58.2043	15.6315	-51.4567	59.3777	-1.3782	-37.151	55.6175	-15.2781	-99.1649	78.003	-46.1617	-79.7605	73.3201	-69.5878	-71.43	64.4044	-91.9138	-121.752	75.0643	-57.3514	-113.074	67.9781	-86.1973	-101.572	53.6861	-115.053	-144.931	63.32	-57.5642	-141.989	59.8676	-82.5051	-138.142	51.2238	-107.837	-165.981	46.1307	-48.1752	-170.278	39.0265	-68.2555	-171.836	31.8149	-93.9159	-159.772	66.3384	-3.04794	-164.021	63.9797	24.0912	-130.424	77.8674	16.5944	
39	0.325	-99.4029	47.7232	28.5724	-76.2251	39.2556	12.4248	-50.1978	34.8142	-8.3121	-34.4362	28.6948	-27.1203	-94.4844	82.3263	-44.3241	-80.2903	84.2571	-63.4017	-67.2946	77.6345	-90.1959	-125.027	84.9522	-53.714	-116.359	88.2263	-81.8476	-110.133	85.156	-109.301	-141.272	68.3287	-52.6032	-139.412	63.4401	-81.3662	-135.474	49.005	-107.662	-163.073	47.6785	-49.4577	-161.599	37.1357	-69.5241	-155.453	21.565	-89.2659	-152.939	70.4252	1.5504	-161.926	61.4419	27.3108	-124.079	71.8049	22.6514	
40	0.333333	-94.3019	41.0304	28.5421	-77.3152	28.9108	7.25905	-56.9108	19.8849	-12.519	-44.6221	10.3847	-31.1096	-91.993	86.1763	-38.3404	-74.927	89.587	-58.4582	-65.7239	88.9734	-82.7129	-121.417	91.643	-46.1245	-114.198	100.25	-72.2847	-103.093	100.764	-104.199	-140.92	72.7071	-51.3668	-135.492	65.9616	-79.141	-127.959	40.2461	-99.3451	-157.881	53.8029	-45.5737	-156.292	36.9524	-65.1487	-145.502	18.7503	-79.5816	-153.501	75.0252	0.102699	-159.4	66.0415	30.5197	-124.103	72.6553	24.1111	
